<svg width="100" height="45" viewBox="0 0 240 102" fill="none" xmlns="http://www.w3.org/2000/svg">
<g clip-path="url(#clip0_6_11026)">
<path fill-rule="evenodd" clip-rule="evenodd" d="M94.9 57.3H92.29L59.96 30.56H77.9L94.72 45.84L94.9 57.3Z" fill="#000"/>
<path fill-rule="evenodd" clip-rule="evenodd" d="M98.83 51.3V47.3L70.05 15.3H91.92L105.18 42.01C105.18 42.01 105 44.01 104.44 44.38C103.88 44.75 104.25 51.11 104.25 51.11L98.83 51.29" fill="#000"/>
<path fill-rule="evenodd" clip-rule="evenodd" d="M108.93 50.39V43.66L90.8 0.00999451H116.03L117.89 38.21L115.46 40.58C114.803 41.9331 114.546 43.4458 114.72 44.94C114.942 46.2611 115.003 47.6043 114.9 48.94L108.9 50.39" fill="#000"/>
<path fill-rule="evenodd" clip-rule="evenodd" d="M143.43 57.3H146.05L178.38 30.56H160.44L143.62 45.84L143.43 57.3Z" fill="#000"/>
<path fill-rule="evenodd" clip-rule="evenodd" d="M139.51 51.3V47.3L168.29 15.3H146.42L133.15 42.01C133.15 42.01 133.34 44.01 133.9 44.38C134.46 44.75 134.09 51.11 134.09 51.11L139.51 51.29" fill="#000"/>
<path fill-rule="evenodd" clip-rule="evenodd" d="M129.42 50.39V43.66L147.54 0.00999451H122.32L120.44 38.21L122.88 40.58C123.531 41.9349 123.788 43.446 123.62 44.94C123.404 46.2617 123.343 47.6042 123.44 48.94L129.44 50.39" fill="#000"/>
<path fill-rule="evenodd" clip-rule="evenodd" d="M0 101.01H7.45V88.92H14.78V83.21H7.45V77.25H17.76V71.54H0V101.01Z" fill="#000"/>
<path fill-rule="evenodd" clip-rule="evenodd" d="M19.62 101.01H26.33V80.23H19.62V101.01ZM19.62 77.5H26.33V71.5H19.62V77.5Z" fill="#000"/>
<path fill-rule="evenodd" clip-rule="evenodd" d="M29.72 101.01H36.43V87.56C37.18 86.56 37.88 85.94 40.11 85.94C41.0503 85.9707 41.9779 86.1671 42.85 86.52V79.73C40.2 79.73 37.22 80.73 36.39 83.38H36.31V80.23H29.72V101.01Z" fill="#000"/>
<path fill-rule="evenodd" clip-rule="evenodd" d="M53.91 87.81C49.4 87.93 43.11 89.54 43.11 95.13C43.11 99.19 45.47 101.51 49.11 101.51C50.0753 101.499 51.0267 101.279 51.8986 100.865C52.7705 100.45 53.5421 99.8517 54.16 99.11C54.24 99.73 54.24 100.43 54.37 101.01H61.28C61.03 100.72 60.66 100.01 60.66 97.66V86.07C60.66 81.47 56.48 79.73 52.46 79.73C48.66 79.73 44.93 81.39 44.18 85.49L50.02 86.69C50.14 85.53 50.68 83.96 52.21 83.96C53.41 83.96 53.95 85.16 53.95 86.4V87.81H53.91ZM53.95 95.71C53.6921 96.0728 53.3598 96.3764 52.9753 96.6006C52.5907 96.8248 52.1628 96.9643 51.72 97.01C50.52 97.01 49.77 96.22 49.77 94.77C49.77 91.71 51.31 91.25 53.87 91L53.95 95.71Z" fill="#000"/>
<path fill-rule="evenodd" clip-rule="evenodd" d="M75.38 101.01H87.38C93.22 101.01 97.02 97.86 97.02 92.9C97.02 89.01 94.79 86.56 90.94 85.61V85.53C92.5357 85.1925 93.9635 84.3085 94.9768 83.0304C95.9901 81.7524 96.5253 80.1606 96.49 78.53C96.49 74.47 93.22 71.53 87.83 71.53H75.38V101.01ZM82.83 88.18H85.56C86.0601 88.1539 86.5602 88.2299 87.03 88.4034C87.4997 88.5768 87.9293 88.844 88.2924 89.1887C88.6556 89.5335 88.9448 89.9486 89.1425 90.4087C89.3401 90.8688 89.442 91.3643 89.442 91.865C89.442 92.3657 89.3401 92.8613 89.1425 93.3214C88.9448 93.7815 88.6556 94.1965 88.2924 94.5413C87.9293 94.886 87.4997 95.1532 87.03 95.3266C86.5602 95.5001 86.0601 95.5761 85.56 95.55H82.83V88.18ZM82.83 76.75H85.44C87.13 76.75 89 77.21 89 80.02C89 81.76 88 83.21 85.27 83.21H82.83V76.75Z" fill="#000"/>
<path fill-rule="evenodd" clip-rule="evenodd" d="M108.65 87.81C104.14 87.93 97.85 89.54 97.85 95.13C97.85 99.19 100.21 101.51 103.85 101.51C104.807 101.492 105.749 101.268 106.611 100.854C107.474 100.44 108.238 99.8453 108.85 99.11C108.93 99.73 108.93 100.43 109.06 101.01H115.97C115.72 100.72 115.35 100.01 115.35 97.66V86.07C115.35 81.47 111.17 79.73 107.15 79.73C103.35 79.73 99.62 81.39 98.88 85.49L104.71 86.69C104.83 85.53 105.37 83.96 106.91 83.96C108.1 83.96 108.64 85.16 108.64 86.4V87.81H108.65ZM108.64 95.71C108.394 96.069 108.075 96.3727 107.705 96.6017C107.335 96.8307 106.921 96.98 106.49 97.04C105.29 97.04 104.55 96.25 104.55 94.8C104.55 91.74 106.08 91.28 108.64 91.03V95.71Z" fill="#000"/>
<path fill-rule="evenodd" clip-rule="evenodd" d="M118.92 101.01H125.62V87.56C126.37 86.56 127.07 85.94 129.31 85.94C130.247 85.9719 131.171 86.1682 132.04 86.52V79.73C129.39 79.73 126.41 80.73 125.58 83.38H125.5V80.23H118.92V101.01Z" fill="#000"/>
<path fill-rule="evenodd" clip-rule="evenodd" d="M149.99 88.01C149.99 85.94 148.91 79.77 141.79 79.77C135.46 79.77 132.31 85.44 132.31 91.12C132.31 96.25 135.46 101.55 141.5 101.55C146.39 101.55 149.28 98.9 149.78 93.85L144.56 93.1C144.56 94.68 144.36 97.1 142 97.1C140.26 97.1 139.51 95.57 139.51 90.89C139.51 86.75 139.76 84.02 142 84.02C142.433 84.003 142.86 84.1316 143.211 84.3854C143.563 84.6391 143.82 85.0034 143.94 85.42C144.194 86.2656 144.306 87.1477 144.27 88.03H149.99" fill="#000"/>
<path fill-rule="evenodd" clip-rule="evenodd" d="M169.39 92.11V90.7C169.39 85.28 167.16 79.7 160.7 79.7C154.54 79.7 151.47 84.7 151.47 90.55C151.47 96.4 154.37 101.48 160.79 101.48C162.598 101.534 164.376 101.014 165.87 99.9956C167.365 98.9772 168.499 97.5121 169.11 95.81L164.59 94.15C164.434 94.9408 164.013 95.6548 163.397 96.1746C162.78 96.6944 162.006 96.989 161.2 97.01C158.55 97.01 158.2 93.9 158.2 92.08H169.41L169.39 92.11ZM158.2 88.08C158.2 86.13 158.78 83.9 160.68 83.9C163 83.9 163.16 86.13 163.21 88.08H158.2Z" fill="#000"/>
<path d="M178.34 71.54H171.63V101.01H178.34V71.54Z" fill="#000"/>
<path fill-rule="evenodd" clip-rule="evenodd" d="M180.57 90.54C180.57 97 183.57 101.54 189.92 101.54C196.27 101.54 199.28 97.03 199.28 90.54C199.28 84.33 196.17 79.73 189.92 79.73C183.67 79.73 180.57 84.33 180.57 90.54ZM187.52 90.54C187.52 85.74 188.02 83.96 189.92 83.96C191.82 83.96 192.32 85.74 192.32 90.54C192.32 95.79 191.58 97.29 189.92 97.29C188.26 97.29 187.52 95.79 187.52 90.54Z" fill="#000"/>
<path fill-rule="evenodd" clip-rule="evenodd" d="M201.66 101.01H208.37V85.82L208.74 85.32C208.94 85.0472 209.202 84.826 209.505 84.6748C209.807 84.5235 210.142 84.4464 210.48 84.45C211.72 84.45 212.1 85.2 212.1 86.32V101.01H218.8V84.41C218.8 81.56 217.06 79.73 214.37 79.73C213.187 79.7306 212.024 80.0308 210.989 80.6026C209.954 81.1744 209.08 81.9992 208.45 83H208.37V80.23H201.66V101.01Z" fill="#000"/>
<path fill-rule="evenodd" clip-rule="evenodd" d="M232.01 87.81C227.49 87.93 221.2 89.54 221.2 95.13C221.2 99.19 223.56 101.51 227.2 101.51C228.165 101.499 229.117 101.279 229.989 100.865C230.861 100.45 231.632 99.8517 232.25 99.11C232.34 99.73 232.34 100.43 232.46 101.01H239.37C239.13 100.72 238.75 100.01 238.75 97.66V86.07C238.75 81.47 234.57 79.73 230.55 79.73C226.75 79.73 223.02 81.39 222.28 85.49L228.11 86.69C228.24 85.53 228.78 83.96 230.31 83.96C231.51 83.96 232.05 85.16 232.05 86.4V87.81H232.01ZM232.05 95.71C231.802 96.0673 231.483 96.3698 231.113 96.5986C230.743 96.8274 230.33 96.9777 229.9 97.04C228.69 97.04 227.95 96.25 227.95 94.8C227.95 91.74 229.48 91.28 232.05 91.03V95.71Z" fill="#000"/>
</g>
<defs>
<clipPath id="clip0_6_11026">
<rect width="239.33" height="101.51" fill="white"/>
</clipPath>
</defs>
</svg>
